<svg version="1" xmlns="http://www.w3.org/2000/svg" width="341.333" height="341.333" viewBox="0 0 256.000000 256.000000"><path d="M114 .7c-2.3.3-12.1 2-16.1 2.8-.9.2-5.7 1.7-10.7 3.4-43 14.4-74.9 50.3-84.7 95.6-2.3 10.4-2.8 33.3-1 44 1.8 11.1 2.3 13.3 2.9 14.3.3.5.7 2.2 1 3.8 1.2 6.8 9.4 24.2 15.9 33.9 15.8 23.5 36.6 39.9 63 49.6 15.7 5.8 25.4 7.4 44.7 7.4 16.5 0 23.5-1.1 38-5.7 44-14 77.5-51.5 86.6-97 1.9-9.7 2.6-33.6 1.3-42.3-3.8-24.5-13.5-46.2-28.6-64.3-3.1-3.7-6.8-7.7-8.2-9-1.4-1.3-4.6-4.1-7-6.3-14.3-13.1-37.4-24.2-58.9-28.6C145.1.9 119.8-.2 114 .7z"/></svg>